<svg width="300" height="300" viewBox="0 0 300 300" fill="none" xmlns="http://www.w3.org/2000/svg">
<path d="M75.15 225H262.5V50C262.5 36.2125 251.288 25 237.5 25H75C59.925 25 37.5 34.9875 37.5 62.5V237.5C37.5 265.012 59.925 275 75 275H262.5V250H75.15C69.375 249.85 62.5 247.575 62.5 237.5C62.5 236.237 62.6125 235.112 62.8 234.087C64.2 226.887 70.1 225.125 75.15 225ZM108.1 95.525C113.303 90.3883 120.32 87.5081 127.631 87.5081C134.943 87.5081 141.96 90.3883 147.162 95.525L149.962 98.2625L152.75 95.525C157.955 90.3876 164.974 87.507 172.287 87.507C179.601 87.507 186.62 90.3876 191.825 95.525C194.407 98.0081 196.461 100.987 197.864 104.283C199.267 107.579 199.99 111.124 199.99 114.706C199.99 118.288 199.267 121.834 197.864 125.13C196.461 128.426 194.407 131.404 191.825 133.888L149.975 175L108.113 133.888C105.528 131.406 103.472 128.428 102.067 125.133C100.662 121.837 99.9367 118.292 99.9356 114.709C99.9344 111.126 100.657 107.58 102.06 104.284C103.463 100.987 105.517 98.008 108.1 95.525Z" fill="black"/>
</svg>
