<svg width="25" height="25" viewBox="0 0 25 25" fill="none" xmlns="http://www.w3.org/2000/svg">
<path d="M17.7083 11.4583C18.0625 11.4583 18.4062 11.5 18.75 11.5521V6.53125L10.9375 3.125L3.125 6.53125V11.6458C3.125 16.375 6.45833 20.8021 10.9375 21.875C11.5104 21.7396 12.0625 21.5417 12.6042 21.3021C11.8854 20.2813 11.4583 19.0417 11.4583 17.7083C11.4583 14.2604 14.2604 11.4583 17.7083 11.4583Z" fill="white" fill-opacity="0.7"/>
<path d="M17.7083 13.5417C15.4062 13.5417 13.5416 15.4063 13.5416 17.7084C13.5416 20.0104 15.4062 21.875 17.7083 21.875C20.0104 21.875 21.875 20.0104 21.875 17.7084C21.875 15.4063 20.0104 13.5417 17.7083 13.5417ZM17.7083 14.9792C18.3541 14.9792 18.875 15.5104 18.875 16.1459C18.875 16.7813 18.3437 17.3125 17.7083 17.3125C17.0729 17.3125 16.5416 16.7813 16.5416 16.1459C16.5416 15.5104 17.0625 14.9792 17.7083 14.9792ZM17.7083 20.5729C16.7395 20.5729 15.8958 20.0938 15.375 19.3542C15.427 18.6042 16.9479 18.2292 17.7083 18.2292C18.4687 18.2292 19.9895 18.6042 20.0416 19.3542C19.5208 20.0938 18.677 20.5729 17.7083 20.5729Z" fill="white" fill-opacity="0.7"/>
</svg>
