<svg width="25" height="25" viewBox="0 0 25 25" fill="none" xmlns="http://www.w3.org/2000/svg">
<path d="M12.5 21.875L10.9896 20.5208C9.23612 18.941 7.78647 17.5781 6.64064 16.4323C5.4948 15.2864 4.58334 14.2576 3.90626 13.3458C3.22918 12.4347 2.75626 11.5972 2.48751 10.8333C2.21876 10.0694 2.08404 9.28818 2.08334 8.48957C2.08334 6.85763 2.63022 5.49478 3.72397 4.40103C4.81772 3.30728 6.18057 2.76041 7.81251 2.76041C8.71529 2.76041 9.57466 2.95138 10.3906 3.33332C11.2066 3.71527 11.9097 4.25346 12.5 4.94791C13.0903 4.25346 13.7934 3.71527 14.6094 3.33332C15.4254 2.95138 16.2847 2.76041 17.1875 2.76041C18.8195 2.76041 20.1823 3.30728 21.2761 4.40103C22.3698 5.49478 22.9167 6.85763 22.9167 8.48957C22.9167 9.28818 22.782 10.0694 22.5125 10.8333C22.2431 11.5972 21.7702 12.4347 21.0938 13.3458C20.4167 14.2576 19.5052 15.2864 18.3594 16.4323C17.2136 17.5781 15.7639 18.941 14.0104 20.5208L12.5 21.875Z" fill="white" fill-opacity="0.7"/>
</svg>
