<svg width="24" height="24" viewBox="0 0 24 24" fill="none" xmlns="http://www.w3.org/2000/svg">
<path d="M20.756 5.345C20.662 5.23681 20.5458 5.15004 20.4154 5.09052C20.285 5.03101 20.1433 5.00014 20 5H6.181L5.986 3.836C5.94718 3.6025 5.82679 3.39034 5.64624 3.23726C5.4657 3.08418 5.23671 3.00011 5 3H2.75C2.48478 3 2.23043 3.10536 2.04289 3.29289C1.85536 3.48043 1.75 3.73478 1.75 4C1.75 4.26522 1.85536 4.51957 2.04289 4.70711C2.23043 4.89464 2.48478 5 2.75 5H4.153L6.013 16.164L6.058 16.288L6.112 16.439L6.232 16.618L6.327 16.73L6.52 16.86L6.632 16.925C6.7483 16.9736 6.87296 16.9991 6.999 17H18C18.2652 17 18.5196 16.8946 18.7071 16.7071C18.8946 16.5196 19 16.2652 19 16C19 15.7348 18.8946 15.4804 18.7071 15.2929C18.5196 15.1054 18.2652 15 18 15H7.847L7.681 14H19C19.2406 14 19.4732 13.9133 19.6551 13.7557C19.8369 13.5981 19.9558 13.3802 19.99 13.142L20.99 6.142C21.0103 6.00015 20.9998 5.8556 20.9595 5.71811C20.9191 5.58062 20.8497 5.45339 20.756 5.345ZM18.847 7L18.562 9H15V7H18.847ZM14 7V9H11V7H14ZM14 10V12H11V10H14ZM10 7V9H7L6.852 9.03L6.514 7H10ZM7.014 10H10V12H7.347L7.014 10ZM15 12V10H18.418L18.133 12H15Z" fill="white" fill-opacity="0.7"/>
<path d="M8.5 21C9.32843 21 10 20.3284 10 19.5C10 18.6716 9.32843 18 8.5 18C7.67157 18 7 18.6716 7 19.5C7 20.3284 7.67157 21 8.5 21Z" fill="white" fill-opacity="0.7"/>
<path d="M17.5 21C18.3284 21 19 20.3284 19 19.5C19 18.6716 18.3284 18 17.5 18C16.6716 18 16 18.6716 16 19.5C16 20.3284 16.6716 21 17.5 21Z" fill="white" fill-opacity="0.7"/>
</svg>
