<svg width="25" height="25" viewBox="0 0 25 25" fill="none" xmlns="http://www.w3.org/2000/svg">
<path d="M7.03125 7.8125C7.03125 9.2629 7.60742 10.6539 8.63301 11.6795C9.6586 12.7051 11.0496 13.2812 12.5 13.2812C13.9504 13.2812 15.3414 12.7051 16.367 11.6795C17.3926 10.6539 17.9688 9.2629 17.9688 7.8125C17.9688 6.3621 17.3926 4.9711 16.367 3.94551C15.3414 2.91992 13.9504 2.34375 12.5 2.34375C11.0496 2.34375 9.6586 2.91992 8.63301 3.94551C7.60742 4.9711 7.03125 6.3621 7.03125 7.8125ZM20.3125 22.6562H3.90625C3.69905 22.6562 3.50034 22.5739 3.35382 22.4274C3.20731 22.2809 3.125 22.0822 3.125 21.875V19.5312C3.125 18.4952 3.53655 17.5017 4.26911 16.7691C5.00168 16.0366 5.99525 15.625 7.03125 15.625H17.9688C19.0048 15.625 19.9983 16.0366 20.7309 16.7691C21.4634 17.5017 21.875 18.4952 21.875 19.5312V21.875C21.875 22.0822 21.7927 22.2809 21.6462 22.4274C21.4997 22.5739 21.301 22.6562 21.0938 22.6562H20.3125Z" fill="white" fill-opacity="0.7"/>
</svg>
