<svg width="25" height="25" viewBox="0 0 25 25" fill="none" xmlns="http://www.w3.org/2000/svg">
<g clip-path="url(#clip0_203_121)">
<path d="M10.1875 9.93056C12.4887 9.93056 14.3542 8.06508 14.3542 5.7639C14.3542 3.46271 12.4887 1.59723 10.1875 1.59723C7.88635 1.59723 6.02087 3.46271 6.02087 5.7639C6.02087 8.06508 7.88635 9.93056 10.1875 9.93056Z" fill="white" fill-opacity="0.7"/>
<path d="M11.4167 22.0972C11.1872 21.8702 11.0374 21.575 10.9899 21.2557C10.9423 20.9365 10.9995 20.6104 11.1528 20.3264L11.5209 19.6319L10.7639 19.4028C10.4552 19.3061 10.1865 19.1115 9.99852 18.8483C9.81053 18.5851 9.71353 18.2677 9.72225 17.9444V16.5208C9.72167 16.1989 9.82465 15.8854 10.016 15.6265C10.2073 15.3676 10.4768 15.1772 10.7847 15.0833L11.5417 14.8541L11.1806 14.1597C11.0317 13.8795 10.9751 13.5596 11.0187 13.2453C11.0624 12.9311 11.2041 12.6387 11.4236 12.4097C10.8894 12.3397 10.3513 12.3026 9.81253 12.2986C8.22108 12.2611 6.64098 12.5753 5.18492 13.2187C3.72885 13.8621 2.4327 14.8189 1.38892 16.0208V21.4028C1.38892 21.5869 1.46208 21.7636 1.59231 21.8938C1.72255 22.024 1.89918 22.0972 2.08336 22.0972H11.4167Z" fill="white" fill-opacity="0.7"/>
<path d="M23.4028 16.2916L22.0139 15.875C21.9177 15.532 21.7825 15.2011 21.6111 14.8889L22.3056 13.5972C22.3324 13.5493 22.3422 13.4936 22.3334 13.4394C22.3246 13.3852 22.2976 13.3355 22.2569 13.2986L21.25 12.2847C21.2112 12.247 21.1618 12.222 21.1084 12.2133C21.0549 12.2047 21.0001 12.2126 20.9514 12.2361L19.6667 12.9305C19.3504 12.7587 19.0177 12.6192 18.6736 12.5139L18.25 11.125C18.2314 11.0738 18.1973 11.0296 18.1526 10.9985C18.1078 10.9674 18.0545 10.9509 18 10.9514H16.5556C16.5014 10.9529 16.449 10.971 16.4056 11.0033C16.3621 11.0356 16.3296 11.0805 16.3125 11.1319L15.8958 12.5208C15.545 12.6229 15.2072 12.765 14.8889 12.9444L13.6319 12.25C13.5831 12.224 13.5273 12.2141 13.4725 12.2215C13.4176 12.229 13.3665 12.2535 13.3264 12.2916L12.3056 13.2916C12.2654 13.3304 12.2389 13.3812 12.2301 13.4363C12.2213 13.4914 12.2308 13.5479 12.2569 13.5972L12.9514 14.8611C12.7654 15.1748 12.614 15.5077 12.5 15.8541L11.1111 16.2778C11.0586 16.2929 11.0125 16.3249 10.9799 16.3688C10.9472 16.4127 10.9299 16.4661 10.9306 16.5208V17.9444C10.9299 17.9991 10.9472 18.0525 10.9799 18.0964C11.0125 18.1403 11.0586 18.1723 11.1111 18.1875L12.5 18.6111C12.6041 18.9512 12.7438 19.2794 12.9167 19.5903L12.2222 20.9097C12.196 20.959 12.1866 21.0155 12.1954 21.0706C12.2042 21.1257 12.2306 21.1765 12.2708 21.2153L13.3056 22.2222C13.3457 22.2603 13.3968 22.2848 13.4516 22.2923C13.5064 22.2998 13.5622 22.2898 13.6111 22.2639L14.9097 21.5694C15.2188 21.7356 15.5447 21.8683 15.8819 21.9653L16.2986 23.3889C16.3161 23.4414 16.3496 23.4871 16.3945 23.5195C16.4394 23.5519 16.4933 23.5693 16.5486 23.5694H17.9722C18.0264 23.5679 18.0787 23.5498 18.1222 23.5175C18.1657 23.4852 18.1982 23.4403 18.2153 23.3889L18.6319 21.9653C18.9652 21.8695 19.2866 21.7368 19.5903 21.5694L20.9028 22.2639C20.9516 22.2898 21.0074 22.2998 21.0623 22.2923C21.1171 22.2848 21.1682 22.2603 21.2083 22.2222L22.2222 21.2153C22.2603 21.1751 22.2849 21.124 22.2923 21.0692C22.2998 21.0144 22.2899 20.9586 22.2639 20.9097L21.5694 19.6041C21.7356 19.2999 21.8683 18.9786 21.9653 18.6458L23.3542 18.2222C23.4063 18.2054 23.4522 18.1732 23.4857 18.1298C23.5192 18.0864 23.5387 18.0339 23.5417 17.9791V16.5416C23.5434 16.4913 23.5313 16.4414 23.5069 16.3974C23.4824 16.3534 23.4464 16.3168 23.4028 16.2916ZM17.2708 19.5694C16.8118 19.5708 16.3627 19.4359 15.9803 19.1819C15.598 18.9279 15.2996 18.5661 15.123 18.1424C14.9464 17.7187 14.8995 17.2521 14.9882 16.8017C15.0769 16.3514 15.2972 15.9374 15.6213 15.6123C15.9454 15.2873 16.3587 15.0657 16.8088 14.9756C17.2589 14.8856 17.7257 14.9311 18.1499 15.1064C18.5741 15.2818 18.9368 15.5791 19.192 15.9606C19.4471 16.3422 19.5833 16.7909 19.5833 17.25C19.5833 17.8639 19.3399 18.4528 18.9064 18.8876C18.473 19.3224 17.8848 19.5676 17.2708 19.5694Z" fill="white" fill-opacity="0.7"/>
</g>
<defs>
<clipPath id="clip0_203_121">
<rect width="25" height="25" fill="white"/>
</clipPath>
</defs>
</svg>
